<svg width="132" height="37" viewBox="0 0 132 37" fill="none" xmlns="http://www.w3.org/2000/svg">
<g clip-path="url(#clip0_1_763)">
<path d="M43.2204 11.0892V22.3426C43.2204 25.7623 42.4944 27.9955 40.7098 29.0511C38.9253 30.1066 36.9746 30.6388 34.8489 30.6388C32.7757 30.5428 30.8775 29.967 29.1717 28.9028C27.4572 27.8472 26.5999 25.6576 26.5999 22.3339V11.0805H31.4986V23.3458C31.4986 24.4974 31.8397 25.3435 32.5133 25.8757C33.1869 26.4078 33.9567 26.6695 34.8314 26.6695C35.7062 26.6695 36.4847 26.4078 37.1845 25.8757C37.8843 25.3435 38.2343 24.5061 38.2343 23.3458V13.5318C38.2343 12.8601 38.4617 12.2844 38.9253 11.7958C39.3802 11.316 39.975 11.0718 40.7011 11.0718H43.2379L43.2204 11.0892Z" fill="#615F65"/>
<path d="M56.9193 5.38397H59.3773C60.0509 5.38397 60.6283 5.63695 61.1181 6.14292C61.5992 6.64889 61.6692 7.21592 61.6692 7.83529V21.9064C61.6692 25.3261 60.8469 27.6291 58.87 28.8329C56.893 30.0368 54.7411 30.6387 52.4317 30.6387C51.1808 30.6387 49.9474 30.4294 48.7402 30.0281C47.533 29.6181 46.5708 28.9551 45.8447 28.0478C44.4451 26.2682 43.5791 23.8343 43.5791 20.7549C43.5791 17.6755 44.2789 15.2939 45.6785 13.462C47.1219 11.5864 48.9851 10.6443 51.2508 10.6443C52.458 10.6443 53.5164 10.8885 54.4349 11.3683C55.3972 11.9441 56.1757 12.6943 56.753 13.6016L56.9193 5.37524V5.38397ZM48.504 20.5368C48.504 22.4647 48.8627 23.9303 49.5887 24.9422C50.3148 25.9542 51.347 26.4601 52.7029 26.4601C54.0588 26.4601 55.021 25.9542 55.7383 24.9422C56.4119 23.9303 56.753 22.4647 56.753 20.5368C56.753 18.8008 56.3944 17.4312 55.6683 16.4193C54.8986 15.4597 53.8576 14.9799 52.5542 14.9799C51.2508 14.9799 50.3148 15.4859 49.5887 16.4978C48.8627 17.4574 48.504 18.8096 48.504 20.5368Z" fill="#615F65"/>
<path d="M75.9278 24.3664H79.5494C79.0158 26.3903 78.176 27.9256 76.6801 28.9812C75.1843 30.0891 73.3036 30.6387 71.0379 30.6387C68.2912 30.6387 66.1392 29.7489 64.5997 27.9693C63.0513 26.2333 62.1153 23.7558 62.1153 20.5368C62.1153 17.3178 62.8589 15.0496 64.3547 13.3224C65.8943 11.5428 68.0462 10.653 70.793 10.653C73.6885 10.653 75.9279 11.5166 77.5199 13.2526C79.0595 15.0322 79.838 17.5097 79.838 20.6851V21.4789C79.838 21.7232 79.8118 21.8889 79.7681 21.9849H67.2502C67.2939 23.4766 67.6613 24.5845 68.3349 25.3086C68.9647 26.0762 69.9007 26.4601 71.1604 26.4601C71.9827 26.4601 72.6825 26.2943 73.2598 25.9541C73.4085 25.9105 73.5397 25.8233 73.6535 25.7011L74.0559 25.2998C74.0996 25.1515 74.2833 24.9596 74.5982 24.7241C74.9131 24.4798 75.3593 24.3664 75.9366 24.3664H75.9278ZM67.2414 18.7397H74.6245C74.5282 17.4399 74.1871 16.4803 73.6097 15.8522C72.9799 15.1805 72.0876 14.8403 70.933 14.8403C69.8745 14.8403 68.9997 15.1805 68.3262 15.8522C67.6526 16.5239 67.2852 17.4922 67.2414 18.7397Z" fill="#FAA32C"/>
<path d="M93.0995 29.4872C92.0848 30.0194 91.0088 30.3421 89.8804 30.4643C88.7432 30.5864 87.7459 30.6475 86.8799 30.6475C85.1391 30.6475 83.6258 30.1764 82.3224 29.243C81.019 28.3008 80.1967 26.7567 80.1967 24.5846C80.1967 22.5607 80.7828 21.1213 81.9725 20.2577C83.1534 19.394 84.658 18.8183 86.495 18.5217C86.74 18.5217 87.0286 18.4868 87.361 18.417C87.7022 18.3472 88.0871 18.2861 88.5157 18.2338C90.6414 17.9459 91.6999 17.3178 91.6999 16.3582C91.6999 15.6342 91.3237 15.1718 90.5802 14.9537C89.8279 14.7357 89.1456 14.631 88.5157 14.631C87.8422 14.631 87.2386 14.7269 86.705 14.9189C86.1714 15.1108 85.7865 15.4684 85.5503 16.0006H80.7041C80.8965 14.5088 81.5701 13.2788 82.7335 12.3192C84.0369 11.2113 85.8914 10.6617 88.3058 10.6617C91.0088 10.6617 93.0295 11.1154 94.3854 12.0313C95.785 12.9909 96.4848 14.3431 96.4848 16.0704V22.6392C96.4848 24.5671 96.3011 26.0676 95.6013 27.1493C94.9015 28.231 94.0705 29.0162 93.1082 29.4959L93.0995 29.4872ZM91.7698 20.6153C91.0963 20.9556 90.1515 21.2609 88.9444 21.5575L87.2823 21.9152C86.4163 22.1594 85.7865 22.4647 85.4016 22.8573C85.0604 23.3894 84.8942 23.9129 84.8942 24.445C84.8942 25.1691 85.1129 25.7448 85.5415 26.181C85.9789 26.5648 86.6 26.7567 87.4223 26.7567C88.7694 26.7567 89.8366 26.3729 90.6064 25.6052C91.3762 24.8376 91.7611 23.7733 91.7611 22.4299V20.6241L91.7698 20.6153Z" fill="#615F65"/>
<path d="M96.7648 23.9303H101.69C101.733 24.8899 102.101 25.614 102.774 26.0938C103.5 26.5735 104.463 26.8178 105.67 26.8178C106.536 26.8178 107.288 26.6521 107.909 26.3118C108.487 25.9716 108.775 25.518 108.775 24.9422C108.775 24.0786 107.761 23.4243 105.74 22.9969C104.874 22.8486 104.218 22.709 103.789 22.5607C101.235 21.9326 99.5203 21.1911 98.6543 20.3275C97.692 19.4638 97.2109 18.3036 97.2109 16.8642C97.2109 15.0323 97.9107 13.5231 99.3103 12.3192C100.754 11.2113 102.643 10.6617 104.953 10.6617C107.463 10.6617 109.466 11.2113 110.962 12.3192C112.362 13.5231 113.105 15.0846 113.202 17.0125H110.087C109.169 17.0125 108.469 16.6025 107.988 15.7825C107.796 15.5906 107.603 15.3986 107.411 15.2067C106.833 14.7705 106.037 14.5612 105.023 14.5612C104.008 14.5612 103.334 14.7095 102.853 14.9974C102.416 15.2852 102.206 15.7214 102.206 16.2972C102.206 17.0648 103.457 17.7191 105.967 18.2425C106.256 18.3385 106.51 18.4083 106.728 18.4606C106.947 18.513 107.148 18.5304 107.341 18.5304C109.799 19.1585 111.513 19.8738 112.476 20.6939C113.394 21.5575 113.849 22.7177 113.849 24.1571C113.849 26.2769 113.245 27.9083 111.706 29.0685C110.262 30.124 108.084 30.6562 105.189 30.6562C102.293 30.6562 100.386 30.1066 99.0391 28.9987C97.6395 27.8908 96.7735 26.2769 96.7735 24.1658V23.9478L96.7648 23.9303Z" fill="#615F65"/>
<path d="M128.029 24.3664H131.817C131.388 25.9977 129.717 28.3182 128.781 28.9812C127.285 30.0891 125.405 30.6387 123.139 30.6387C120.392 30.6387 118.24 29.7489 116.701 27.9693C115.152 26.2333 114.216 23.7558 114.216 20.5368C114.216 17.3178 114.96 15.0496 116.456 13.3224C117.995 11.5428 120.147 10.653 122.894 10.653C125.789 10.653 128.029 11.5166 129.621 13.2526C131.16 15.0322 132.105 17.5097 132.105 20.6851V21.4789C132.105 21.7232 132.079 21.8889 132.035 21.9849H119.351C119.395 23.4766 119.762 24.5845 120.436 25.3086C121.066 26.0762 122.002 26.4601 123.261 26.4601C124.084 26.4601 124.783 26.2943 125.361 25.9541C125.509 25.9105 125.641 25.8233 125.754 25.7011L126.157 25.2998C126.201 25.1515 126.384 24.9596 126.699 24.7241C127.014 24.4798 127.46 24.3664 128.038 24.3664H128.029ZM119.342 18.7397H126.725C126.629 17.4399 126.288 16.4803 125.711 15.8522C125.081 15.1805 124.189 14.8403 123.034 14.8403C121.975 14.8403 121.101 15.1805 120.427 15.8522C119.754 16.5239 119.386 17.4922 119.342 18.7397Z" fill="#615F65"/>
<path d="M7.13641 28.833C6.77775 28.3619 6.49783 27.8472 6.30538 27.3151L3.89978 29.1296C3.13873 29.6966 2.99002 30.7783 3.55862 31.5285C3.83855 31.8949 4.24094 32.1305 4.69581 32.1915C5.15069 32.2526 5.60557 32.1392 5.97297 31.86L8.37857 30.0455C7.91495 29.7053 7.50381 29.2953 7.14515 28.8242L7.13641 28.833Z" fill="#625F65"/>
<path d="M22.7247 10.0511C21.1939 9.02171 18.902 8.49829 15.8491 8.49829C13.1198 8.49829 11.0204 9.12639 9.55076 10.3739C8.23861 11.4643 7.47757 12.8514 7.25888 14.535H12.7436C13.0148 13.9331 13.4522 13.5318 14.0558 13.3137C14.6594 13.0956 15.3417 12.9909 16.1027 12.9909C16.8113 12.9909 17.5898 13.1131 18.4384 13.3573C19.2869 13.6016 19.7068 14.1337 19.7068 14.945C19.7068 16.0355 18.5083 16.7421 16.1027 17.0648C15.6129 17.1172 15.1755 17.187 14.7906 17.2655C14.4057 17.344 14.082 17.3876 13.8109 17.3876C11.7377 17.7104 10.0319 18.3647 8.69349 19.3504C7.3551 20.3275 6.69028 21.9588 6.69028 24.2443C6.69028 26.6957 7.42508 28.4491 8.90343 29.5047C10.373 30.5689 12.0963 31.0924 14.0558 31.0924C15.0355 31.0924 16.1727 31.0226 17.4499 30.8917C18.727 30.7521 19.943 30.3857 21.0889 29.7925C22.1824 29.2517 23.1184 28.3619 23.9144 27.1406C24.7017 25.9193 25.1041 24.2182 25.1041 22.0373V14.6135C25.1041 12.6507 24.308 11.1328 22.7335 10.0424L22.7247 10.0511ZM17.7036 27.8821C16.6888 28.6498 15.4292 28.9725 14.1608 28.7981C12.8924 28.6236 11.7814 27.9606 11.0116 26.9487C9.42829 24.8463 9.84818 21.8541 11.9476 20.2664C12.9711 19.4987 14.222 19.1759 15.4904 19.3504C16.7501 19.5249 17.8698 20.1879 18.6396 21.1998C20.2229 23.3022 19.803 26.2944 17.7036 27.8821Z" fill="#615F65"/>
<path d="M15.4904 19.3504C14.222 19.1759 12.9711 19.4987 11.9476 20.2664C9.84818 21.8541 9.41954 24.8463 11.0116 26.9486C11.7814 27.9693 12.9011 28.6236 14.1608 28.798C15.4204 28.9725 16.6801 28.6497 17.7036 27.8821C19.803 26.2944 20.2316 23.3022 18.6396 21.1998C17.8698 20.1791 16.7501 19.5249 15.4904 19.3504ZM16.8813 23.7907L14.6069 25.5005C14.4669 25.6052 14.3007 25.6401 14.1433 25.6227C13.9858 25.5965 13.8371 25.518 13.7321 25.3784L12.8049 24.1571C12.5949 23.8779 12.6474 23.4854 12.9273 23.2847C13.2073 23.0754 13.6009 23.1277 13.8021 23.4069L14.3532 24.1309L16.129 22.7962C16.4089 22.5868 16.8025 22.6392 17.0037 22.9183C17.2137 23.1975 17.1612 23.5901 16.8813 23.7907Z" fill="#FAA32C"/>
</g>
<defs>
<clipPath id="clip0_1_763">
<rect width="132" height="37" fill="white"/>
</clipPath>
</defs>
</svg>
